<svg width="51" height="51" viewBox="0 0 51 51" fill="none" xmlns="http://www.w3.org/2000/svg">
<path d="M39.7588 40.4375C37.995 43.0725 36.125 45.6437 33.2775 45.6862C30.43 45.75 29.5163 44.0075 26.2863 44.0075C23.035 44.0075 22.0363 45.6437 19.3375 45.75C16.5538 45.8563 14.45 42.945 12.665 40.3737C9.03129 35.125 6.24754 25.4563 9.98754 18.9538C11.8363 15.7238 15.1513 13.6838 18.7425 13.62C21.4625 13.5775 24.055 15.4688 25.7338 15.4688C27.3913 15.4688 30.5363 13.195 33.83 13.535C35.2113 13.5988 39.0788 14.0875 41.565 17.7425C41.3738 17.87 36.9538 20.4625 36.9963 25.8388C37.06 32.2563 42.6275 34.4025 42.6913 34.4238C42.6275 34.5725 41.7988 37.4838 39.7588 40.4375ZM27.625 6.4375C29.1763 4.67375 31.7475 3.335 33.8725 3.25C34.1488 5.73625 33.15 8.24375 31.6625 10.0288C30.1963 11.835 27.7738 13.2375 25.3938 13.0463C25.075 10.6025 26.265 8.0525 27.625 6.4375Z" fill="#FEFAF3"/>
</svg>
