<svg width="222" height="19" viewBox="0 0 222 19" fill="none" xmlns="http://www.w3.org/2000/svg">
<path d="M67.6348 12.0898L67.6364 12.5898L67.6348 12.0898ZM134.114 0.891997L134.118 1.39197L134.114 0.891997ZM220.929 16.8795C221.174 16.7529 221.27 16.4513 221.144 16.2059L219.081 12.2065C218.955 11.9611 218.653 11.8647 218.408 11.9913C218.162 12.1179 218.066 12.4194 218.192 12.6649L220.026 16.2199L216.471 18.0534C216.225 18.18 216.129 18.4815 216.256 18.727C216.382 18.9724 216.684 19.0687 216.929 18.9422L220.929 16.8795ZM0.212279 2.74916C0.097067 3.23571 0.0972564 3.23575 0.0975972 3.23583C0.0979131 3.23591 0.0984055 3.23602 0.0990365 3.23617C0.100299 3.23647 0.102165 3.23691 0.104633 3.2375C0.109569 3.23866 0.116911 3.24039 0.126634 3.24268C0.14608 3.24726 0.175049 3.25407 0.213344 3.26304C0.289933 3.28097 0.403825 3.30753 0.553431 3.34215C0.852641 3.41138 1.29472 3.51282 1.86695 3.64184C3.01141 3.89989 4.67658 4.26828 6.76082 4.71001C10.9291 5.59343 16.7745 6.77036 23.4838 7.94462C36.8951 10.2918 53.7861 12.6334 67.6364 12.5898L67.6333 11.5898C53.8742 11.6332 37.0539 9.30443 23.6562 6.95959C16.9611 5.78781 11.1276 4.61328 6.96815 3.73173C4.88851 3.29098 3.22757 2.92352 2.0869 2.66633C1.51657 2.53774 1.07632 2.43671 0.778851 2.36789C0.630115 2.33347 0.517076 2.30711 0.44132 2.28937C0.403442 2.2805 0.374885 2.27379 0.355848 2.26931C0.346329 2.26707 0.33919 2.26538 0.334455 2.26426C0.332088 2.2637 0.330322 2.26329 0.329161 2.26301C0.32858 2.26288 0.328162 2.26278 0.327872 2.26271C0.327606 2.26264 0.327491 2.26262 0.212279 2.74916ZM67.6364 12.5898C82.5156 12.543 91.8006 9.79777 101.036 7.04203C110.249 4.2928 119.411 1.53389 134.118 1.39197L134.109 0.392021C119.255 0.535343 109.983 3.32872 100.75 6.08378C91.5387 8.83233 82.3652 11.5434 67.6333 11.5898L67.6364 12.5898ZM134.118 1.39197C152.469 1.21491 174.069 5.08978 191.102 9.01752C199.615 10.9804 206.978 12.9544 212.212 14.4376C214.829 15.1791 216.914 15.7979 218.344 16.2312C219.059 16.4478 219.611 16.618 219.983 16.734C220.169 16.792 220.31 16.8364 220.405 16.8663C220.452 16.8812 220.488 16.8926 220.512 16.9001C220.524 16.9039 220.533 16.9067 220.539 16.9086C220.542 16.9095 220.544 16.9102 220.545 16.9107C220.546 16.9109 220.546 16.9111 220.547 16.9112C220.547 16.9113 220.547 16.9114 220.699 16.4351C220.852 15.9588 220.851 15.9587 220.851 15.9586C220.851 15.9585 220.85 15.9583 220.849 15.958C220.848 15.9575 220.845 15.9567 220.842 15.9558C220.836 15.9538 220.827 15.9509 220.815 15.947C220.79 15.9393 220.754 15.9278 220.706 15.9127C220.61 15.8824 220.468 15.8376 220.28 15.7792C219.906 15.6625 219.352 15.4915 218.634 15.2741C217.199 14.8393 215.108 14.2188 212.485 13.4754C207.238 11.9888 199.859 10.0104 191.327 8.04309C174.273 4.11046 152.58 0.213793 134.109 0.392021L134.118 1.39197Z" fill="#FEFAF3"/>
</svg>
