<svg width="201" height="36" viewBox="0 0 201 36" fill="none" xmlns="http://www.w3.org/2000/svg">
<path d="M64.5 2.69635L64.5016 3.19635L64.5 2.69635ZM134.656 0.839183L134.651 0.339206L134.656 0.839183ZM199.995 35.4451C200.27 35.4708 200.514 35.2688 200.54 34.9939L200.959 30.5134C200.985 30.2385 200.783 29.9948 200.508 29.969C200.233 29.9433 199.989 30.1453 199.964 30.4203L199.591 34.4028L195.608 34.0301C195.333 34.0044 195.089 34.2064 195.064 34.4813C195.038 34.7563 195.24 35 195.515 35.0257L199.995 35.4451ZM0.754306 2.69635C0.753103 3.19635 0.753242 3.19635 0.753518 3.19635C0.753794 3.19635 0.754208 3.19635 0.754758 3.19635C0.75586 3.19635 0.75751 3.19636 0.759706 3.19636C0.764099 3.19637 0.770676 3.19639 0.779416 3.19641C0.796896 3.19645 0.823028 3.19651 0.857642 3.19659C0.926869 3.19675 1.03002 3.19699 1.16574 3.1973C1.43718 3.19792 1.83886 3.19881 2.3599 3.19991C3.40198 3.20212 4.92147 3.20518 6.83112 3.20858C10.6504 3.21537 16.0304 3.22352 22.2732 3.22896C34.7587 3.23983 50.6959 3.23983 64.5016 3.19635L64.4984 2.19635C50.6948 2.23983 34.7591 2.23983 22.2741 2.22896C16.0316 2.22352 10.652 2.21537 6.83289 2.20858C4.92337 2.20518 3.404 2.20212 2.36202 2.19992C1.84104 2.19881 1.4394 2.19792 1.16801 2.1973C1.03232 2.197 0.929185 2.19676 0.85998 2.1966C0.825378 2.19651 0.799258 2.19645 0.781789 2.19641C0.773055 2.19639 0.766483 2.19638 0.762096 2.19636C0.759903 2.19636 0.758255 2.19636 0.757156 2.19635C0.756607 2.19635 0.756195 2.19635 0.75592 2.19635C0.755646 2.19635 0.755509 2.19635 0.754306 2.69635ZM64.5016 3.19635C79.3166 3.14968 89.4725 2.7564 99.6169 2.33933C109.759 1.92235 119.888 1.48169 134.66 1.33916L134.651 0.339206C119.861 0.481908 109.718 0.923198 99.5758 1.34018C89.4356 1.75707 79.2945 2.14975 64.4984 2.19635L64.5016 3.19635ZM134.66 1.33916C152.918 1.163 169.159 9.62168 180.862 18.1639C186.71 22.4315 191.412 26.711 194.651 29.923C196.271 31.5287 197.525 32.867 198.372 33.8028C198.796 34.2706 199.118 34.6378 199.334 34.8874C199.442 35.0121 199.523 35.1075 199.577 35.1714C199.604 35.2033 199.624 35.2274 199.638 35.2433C199.644 35.2513 199.649 35.2572 199.653 35.261C199.654 35.2629 199.655 35.2644 199.656 35.2652C199.656 35.2657 199.657 35.266 199.657 35.2662C199.657 35.2663 199.657 35.2663 200.042 34.9473C200.427 34.6282 200.427 34.6279 200.426 34.6276C200.426 34.6273 200.426 34.6267 200.425 34.6261C200.424 34.6249 200.423 34.6232 200.421 34.621C200.417 34.6165 200.412 34.6099 200.404 34.6013C200.39 34.5841 200.369 34.5587 200.341 34.5254C200.284 34.4589 200.201 34.3608 200.09 34.2333C199.87 33.9782 199.542 33.6053 199.113 33.1314C198.255 32.1839 196.989 30.8325 195.356 29.2128C192.089 25.9741 187.348 21.6599 181.452 17.3561C169.668 8.75544 153.216 0.160076 134.651 0.339206L134.66 1.33916Z" fill="#FEFAF3"/>
</svg>
