<svg width="157" height="70" viewBox="0 0 157 70" fill="none" xmlns="http://www.w3.org/2000/svg">
<path d="M59.1325 2.07707L59.1329 2.07715C65.8621 3.25698 72.67 4.37093 79.3962 5.47151C96.1038 8.20528 112.307 10.8565 125.545 14.23C134.829 16.5956 142.603 19.3049 148.046 22.6197C153.493 25.9363 156.5 29.7887 156.5 34.424C156.5 43.9587 147.981 52.7296 133.812 59.1454C119.688 65.5408 100.137 69.5 78.5 69.5C56.8633 69.5 37.3118 65.5408 23.1882 59.1454C9.01947 52.7296 0.5 43.9587 0.5 34.424C0.5 24.713 4.56945 14.7838 13.8882 8.20175C23.2125 1.61581 37.868 -1.67132 59.1325 2.07707Z" stroke="#CDB39B"/>
</svg>
