<svg width="157" height="70" viewBox="0 0 157 70" fill="none" xmlns="http://www.w3.org/2000/svg">
<path d="M97.8675 67.9229L97.8671 67.9228C91.1379 66.743 84.33 65.6291 77.6038 64.5285C60.8962 61.7947 44.6928 59.1434 31.4546 55.77C22.1713 53.4044 14.3972 50.6951 8.95358 47.3803C3.50705 44.0637 0.500003 40.2113 0.500003 35.576C0.500004 26.0412 9.01947 17.2704 23.1882 10.8546C37.3118 4.4592 56.8633 0.499991 78.5 0.499993C100.137 0.499995 119.688 4.4592 133.812 10.8546C147.981 17.2704 156.5 26.0413 156.5 35.576C156.5 45.287 152.431 55.2162 143.112 61.7982C133.787 68.3842 119.132 71.6713 97.8675 67.9229Z" stroke="#CDB39B"/>
</svg>
