<svg width="156" height="67" viewBox="0 0 156 67" fill="none" xmlns="http://www.w3.org/2000/svg">
<path d="M155.5 41.5C155.5 46.1175 151.742 50.0488 145.082 53.3488C138.455 56.6321 129.139 59.1938 118.428 61.1469C97.0174 65.0514 70.1756 66.5 48.5 66.5C26.8301 66.5 14.8695 63.0282 8.31326 57.2265C1.78498 51.4496 0.5 43.2567 0.5 33.4243C0.5 28.6674 2.76173 24.0475 6.94089 19.8352C11.1215 15.6213 17.1978 11.8416 24.75 8.78681C39.8479 2.67992 60.7586 -0.494296 83.9353 1.49626C107.321 5.59772 125.249 10.8186 137.319 17.4296C149.391 24.0415 155.5 31.9792 155.5 41.5Z" stroke="#CDB39B"/>
</svg>
