<svg width="2" height="130" viewBox="0 0 2 130" fill="none" xmlns="http://www.w3.org/2000/svg">
<path d="M0 3.09524V4.09524H2V3.09524H0ZM2 15.4762V14.4762H0V15.4762H2ZM0 21.6667V22.6667H2V21.6667H0ZM2 34.0476V33.0476H0V34.0476H2ZM0 40.2381V41.2381H2V40.2381H0ZM2 52.619V51.619H0V52.619H2ZM0 58.8095V59.8095H2V58.8095H0ZM2 71.1905V70.1905H0V71.1905H2ZM0 77.381V78.381H2V77.381H0ZM2 89.7619V88.7619H0V89.7619H2ZM0 95.9524V96.9524H2V95.9524H0ZM2 108.333V107.333H0V108.333H2ZM0 114.524V115.524H2V114.524H0ZM2 126.905V125.905H0V126.905H2ZM0 0V3.09524H2V0H0ZM0 15.4762V21.6667H2V15.4762H0ZM0 34.0476V40.2381H2V34.0476H0ZM0 52.619V58.8095H2V52.619H0ZM0 71.1905V77.381H2V71.1905H0ZM0 89.7619V95.9524H2V89.7619H0ZM0 108.333V114.524H2V108.333H0ZM0 126.905V130H2V126.905H0Z" fill="#CDB39B"/>
</svg>
