<svg width="30" height="30" viewBox="0 0 30 30" fill="none" xmlns="http://www.w3.org/2000/svg">
<path d="M2.91634 7.6854L4.78301 5.83331L29.1663 30.2166L27.3143 32.0833L22.8226 27.5916C21.1455 28.1458 19.3663 28.4375 17.4997 28.4375C10.208 28.4375 3.98092 23.9021 1.45801 17.5C2.46426 14.9333 4.06842 12.6729 6.11009 10.8791L2.91634 7.6854ZM17.4997 13.125C18.66 13.125 19.7728 13.5859 20.5933 14.4064C21.4137 15.2269 21.8747 16.3397 21.8747 17.5C21.8747 18.0104 21.7872 18.5062 21.6268 18.9583L16.0413 13.3729C16.4934 13.2125 16.9893 13.125 17.4997 13.125ZM17.4997 6.56248C24.7913 6.56248 31.0184 11.0979 33.5413 17.5C32.3455 20.5333 30.3184 23.1583 27.708 25.0687L25.6372 22.9833C27.6205 21.6125 29.2538 19.7458 30.3622 17.5C27.9559 12.6 22.983 9.47915 17.4997 9.47915C15.9101 9.47915 14.3497 9.74165 12.8913 10.2083L10.6455 7.97706C12.7455 7.0729 15.0643 6.56248 17.4997 6.56248ZM4.63717 17.5C7.04343 22.4 12.0163 25.5208 17.4997 25.5208C18.5059 25.5208 19.4976 25.4187 20.4163 25.2146L17.0913 21.875C15.0059 21.6562 13.3434 19.9937 13.1247 17.9083L8.16634 12.9354C6.72259 14.175 5.51217 15.7208 4.63717 17.5Z" fill="#FEFAF3"/>
</svg>
