<svg width="1312" height="583" viewBox="0 0 1312 583" fill="none" xmlns="http://www.w3.org/2000/svg">
<path d="M494.585 13.6856L494.585 13.6857C550.681 23.4884 607.479 32.7513 663.627 41.9081C803.261 64.68 938.868 86.7953 1049.62 114.923C1127.25 134.642 1192.62 157.305 1238.58 185.193C1284.53 213.083 1310.95 246.129 1310.95 286.598C1310.95 368.302 1237.88 442.226 1119.28 495.753C1000.72 549.259 836.861 582.287 655.727 582.287C474.593 582.287 310.735 549.259 192.178 495.753C73.5764 442.226 0.5 368.302 0.5 286.598C0.5 204.718 34.9493 120.865 113.89 65.2926C192.836 9.71605 316.355 -17.6277 494.585 13.6856Z" stroke="#494949"/>
</svg>
