<svg width="68" height="68" viewBox="0 0 68 68" fill="none" xmlns="http://www.w3.org/2000/svg">
<path d="M29.8827 55.725L29.882 55.7244C22.6608 49.1762 16.7069 43.7707 12.5525 38.688C8.4035 33.6121 6.10156 28.9192 6.10156 23.8046C6.10156 15.4276 12.6544 8.90161 21.0045 8.90161C25.7263 8.90161 30.2664 11.1023 33.2275 14.5524L33.6069 14.9944L33.9864 14.5524C36.9475 11.1023 41.4876 8.90161 46.2094 8.90161C54.5595 8.90161 61.1123 15.4276 61.1123 23.8046C61.1123 28.9192 58.8104 33.6121 54.6614 38.688C50.507 43.7707 44.5531 49.1762 37.3318 55.7244L37.3311 55.725L33.6069 59.1153L29.8827 55.725Z" stroke="#FEFAF3"/>
</svg>
