<svg width="244" height="83" viewBox="0 0 244 83" fill="none" xmlns="http://www.w3.org/2000/svg">
<g clip-path="url(#clip0_35_41)">
<path d="M84.9343 63.8178C84.9343 74.4418 65.9359 83 42.4672 83C18.9985 83 0 74.4418 0 63.8178C0 53.1938 8.94046 42.0533 32.0366 46.1111C57.3679 50.5378 84.9343 53.2676 84.9343 63.8178Z" fill="#FEFAF3"/>
<path d="M10.8032 34.0115C10.8032 25.1582 26.6725 18.0018 46.1925 18.0018C65.7125 18.0018 81.5818 25.1582 81.5818 34.0115C81.5818 42.8649 74.1315 52.1609 54.9095 48.7671C33.7504 45.0782 10.8032 42.7911 10.8032 34.0115Z" fill="#FEFAF3"/>
<path d="M25.3314 14.3867C24.5863 9.22222 33.2288 1.77067 44.7769 0.221333C56.325 -1.328 67.0535 4.79556 67.0535 9.96C67.0535 16.1573 63.1048 17.0427 51.4077 16.6C38.5931 16.1573 26.0764 19.5511 25.3314 14.3867Z" fill="#FEFAF3"/>
<path d="M102.294 33.9378C102.592 34.7493 102.89 34.8969 103.709 34.8969V35.192H99.6114V34.8969C100.878 34.8969 100.952 34.6756 100.654 33.864L99.9839 31.7982H96.4077L95.7372 33.864C95.5137 34.6018 95.5137 34.8231 96.7802 34.8231V35.1182H93.7256V34.8231C94.5451 34.8231 94.8431 34.6756 95.1412 33.864L98.2703 24.3467H99.0153L102.294 33.9378ZM96.6312 31.3556H99.9094L98.3448 26.3387H98.2703L96.6312 31.3556Z" fill="#FEFAF3" stroke="#FEFAF3" stroke-width="0.25" stroke-miterlimit="10"/>
<path d="M108.552 24.8631C107.285 24.8631 107.136 25.0844 107.136 25.896V33.7164C107.136 34.4542 107.285 34.6018 107.956 34.6018H109.595C110.638 34.6018 111.01 34.2329 111.457 32.0933L111.83 32.1671L111.234 34.8231L111.159 35.192H104.23V34.8969C105.497 34.8969 105.646 34.6756 105.646 33.864V25.9698C105.646 25.1582 105.497 24.9369 104.23 24.9369V24.6418H108.626V24.8631H108.552Z" fill="#FEFAF3" stroke="#FEFAF3" stroke-width="0.25" stroke-miterlimit="10"/>
<path d="M117.194 24.8631C115.928 24.8631 115.779 25.0844 115.779 25.896V33.7164C115.779 34.4542 115.928 34.6018 116.598 34.6018H118.237C119.28 34.6018 119.653 34.2329 120.1 32.0933L120.472 32.1671L119.876 34.8231L119.802 35.192H112.873V34.8969C114.14 34.8969 114.289 34.6756 114.289 33.864V25.9698C114.289 25.1582 114.14 24.9369 112.873 24.9369V24.6418H117.269V24.8631H117.194Z" fill="#FEFAF3" stroke="#FEFAF3" stroke-width="0.25" stroke-miterlimit="10"/>
<path d="M120.547 38.7333C117.194 38.7333 116.747 39.3973 116.747 41.5369V66.5476H114.736L100.133 43.4551V62.5636C100.133 64.7031 100.655 65.3671 104.082 65.3671V66.2525H94.8433V65.3671C98.1959 65.3671 98.6429 64.7031 98.6429 62.5636V41.0205V40.9467C97.4509 39.0285 96.4823 38.6596 94.9178 38.6596V37.7742H101.474L115.257 59.9076V41.5369C115.257 39.3973 114.81 38.7333 111.458 38.7333V37.848H120.547V38.7333Z" fill="#FEFAF3"/>
<path d="M143.27 62.7111C144.015 64.8507 144.835 65.3671 147.145 65.3671V66.2525H136.267V65.3671C139.769 65.3671 139.769 64.7769 139.098 62.7111L137.385 57.2516H127.774L125.986 62.7111C125.315 64.7769 125.315 65.3671 128.742 65.3671V66.2525H120.696V65.3671C122.931 65.3671 123.75 64.9245 124.421 62.7111L132.765 37.4053H134.703L143.27 62.7111ZM128.295 55.8498H136.938L132.691 42.5698H132.542L128.295 55.8498Z" fill="#FEFAF3"/>
<path d="M150.498 39.4711C147.89 39.4711 146.996 40.2827 146.698 45.152L145.655 45.0782L146.102 38.9547L146.176 37.9218H165.845L165.92 38.9547L166.367 45.0782L165.398 45.152C165.026 40.2827 164.206 39.4711 161.524 39.4711H159.214C158.469 39.4711 158.022 39.9138 158.022 40.6516V62.5636C158.022 64.7031 158.469 65.3671 161.822 65.3671V66.2525H150.2V65.3671C153.552 65.3671 153.999 64.7031 153.999 62.5636V40.6516C153.999 39.84 153.552 39.4711 152.807 39.4711H150.498Z" fill="#FEFAF3"/>
<path d="M172.849 56.7351V41.5369C172.849 39.3974 172.402 38.7334 169.049 38.7334V37.848H180.671V38.7334C177.319 38.7334 176.872 39.3974 176.872 41.5369V56.7351C176.872 62.4898 179.107 64.7769 183.279 64.7769C187.228 64.7769 189.686 62.1947 189.686 56.5876V41.5369C189.686 39.3974 189.165 38.7334 185.887 38.7334V37.848H195.125V38.7334C191.772 38.7334 191.325 39.3974 191.325 41.5369V56.6614C191.325 61.8996 189.388 66.7689 182.385 66.7689C175.382 66.7689 172.849 62.416 172.849 56.7351Z" fill="#FEFAF3"/>
<path d="M217.029 62.3422C218.147 64.4818 218.743 65.3671 221.351 65.3671V66.2525H219.562C214.794 66.2525 214.198 65.8098 212.485 62.1947L207.791 52.8249H207.269C206.599 52.8249 205.928 52.8249 205.332 52.7511V62.5636C205.332 64.7031 205.854 65.3671 209.132 65.3671V66.2525H197.509V65.3671C200.862 65.3671 201.309 64.7031 201.309 62.5636V41.5369C201.309 39.3974 200.862 38.7334 197.509 38.7334V37.848H208.536C214.943 37.848 217.774 40.5778 217.774 45.0782C217.774 49.8 214.422 51.9396 210.249 52.5298C211.665 52.9725 212.634 53.7102 213.9 56.44L217.029 62.3422ZM205.332 51.3494C206.003 51.4231 206.673 51.4231 207.344 51.4231C210.994 51.4231 213.677 49.6525 213.677 45.2258C213.677 41.3894 211.665 39.3236 208.238 39.3236C207.493 39.3236 206.748 39.3974 206.003 39.6925C205.556 39.84 205.332 40.2089 205.332 40.6516V51.3494Z" fill="#FEFAF3"/>
<path d="M242.063 38.9547L242.733 45.0782L241.765 45.152C241.243 40.2827 240.424 39.4711 237.89 39.4711H232.75C231.632 39.4711 231.036 40.0614 231.036 41.168V50.9067H235.506C237.592 50.9067 238.188 50.3902 238.188 46.7014H239.008V56.2925H238.188C238.188 52.6774 237.592 52.1609 235.506 52.1609H231.036V62.6374C231.036 64.3342 231.334 64.6294 232.75 64.6294H237.816C240.498 64.6294 241.541 63.5965 242.957 58.2107L243.925 58.5058L242.137 65.2196L241.839 66.2525H223.139V65.3671C226.491 65.3671 226.938 64.7031 226.938 62.5636V41.5369C226.938 39.3974 226.491 38.7334 223.139 38.7334V37.848H241.914L242.063 38.9547Z" fill="#FEFAF3"/>
</g>
<defs>
<clipPath id="clip0_35_41">
<rect width="244" height="83" fill="white"/>
</clipPath>
</defs>
</svg>
