<svg width="233" height="79" viewBox="0 0 233 79" fill="none" xmlns="http://www.w3.org/2000/svg">
<path d="M80.989 60.7472C80.989 70.8564 62.873 78.9999 40.4945 78.9999C18.116 78.9999 0 70.8564 0 60.7472C0 50.638 8.52516 40.0373 30.5485 43.8985C54.7031 48.1107 80.989 50.7082 80.989 60.7472Z" fill="#1E2328"/>
<path d="M10.3013 32.3854C10.3013 23.961 25.4334 17.1514 44.0467 17.1514C62.6599 17.1514 77.7921 23.961 77.7921 32.3854C77.7921 40.8097 70.6878 49.6553 52.3587 46.426C32.1825 42.9158 10.3013 40.7395 10.3013 32.3854Z" fill="#1E2328"/>
<path d="M24.155 13.7115C23.4446 8.79729 31.6855 1.70679 42.6972 0.232533C53.7089 -1.24173 63.9391 4.58511 63.9391 9.49932C63.9391 15.3964 60.1738 16.2388 49.02 15.8176C36.8006 15.3964 24.8654 18.6257 24.155 13.7115Z" fill="#1E2328"/>
<path d="M97.542 32.3153C97.8262 33.0876 98.1103 33.228 98.8918 33.228V33.5088H94.9845V33.228C96.1922 33.228 96.2632 33.0174 95.9791 32.2451L95.3397 30.2795H91.9296L91.2902 32.2451C91.0771 32.9472 91.0771 33.1578 92.2848 33.1578V33.4386H89.3721V33.1578C90.1535 33.1578 90.4377 33.0174 90.7219 32.2451L93.7057 23.189H94.4161L97.542 32.3153ZM92.1427 29.8582H95.2686L93.7767 25.0844H93.7057L92.1427 29.8582Z" fill="#1E2328" stroke="#1E2328" stroke-width="0.25" stroke-miterlimit="10"/>
<path d="M103.509 23.6803C102.302 23.6803 102.16 23.8909 102.16 24.6632V32.1047C102.16 32.8067 102.302 32.9471 102.941 32.9471H104.504C105.499 32.9471 105.854 32.5961 106.28 30.5602L106.635 30.6304L106.067 33.1577L105.996 33.5087H99.3889V33.2279C100.597 33.2279 100.739 33.0173 100.739 32.2451V24.7334C100.739 23.9611 100.597 23.7505 99.3889 23.7505V23.4697H103.58V23.6803H103.509Z" fill="#1E2328" stroke="#1E2328" stroke-width="0.25" stroke-miterlimit="10"/>
<path d="M111.75 23.6803C110.542 23.6803 110.4 23.8909 110.4 24.6632V32.1047C110.4 32.8067 110.542 32.9471 111.182 32.9471H112.745C113.739 32.9471 114.095 32.5961 114.521 30.5602L114.876 30.6304L114.308 33.1577L114.237 33.5087H107.63V33.2279C108.837 33.2279 108.979 33.0173 108.979 32.2451V24.7334C108.979 23.9611 108.837 23.7505 107.63 23.7505V23.4697H111.821V23.6803H111.75Z" fill="#1E2328" stroke="#1E2328" stroke-width="0.25" stroke-miterlimit="10"/>
<path d="M95.8329 62.0462C96.1654 62.3036 96.5872 62.4635 97.0905 62.5637H92.5391C93.0305 62.4628 93.4419 62.3009 93.764 62.0384C94.4728 61.4609 94.5609 60.5555 94.5609 59.5535V39.0543V38.9841V38.8411L94.4854 38.7197C93.8958 37.773 93.3266 37.1502 92.6639 36.7761C92.4171 36.6367 92.1654 36.5364 91.9067 36.4653H96.4832L109.479 57.2909L110.404 58.7719V57.0262V39.5457C110.404 38.5437 110.315 37.6383 109.607 37.0608C109.284 36.7983 108.873 36.6364 108.382 36.5355H112.846C112.355 36.6364 111.943 36.7983 111.621 37.0607C110.913 37.6383 110.824 38.5437 110.824 39.5457V62.8445H109.681L95.9041 41.1033L94.9818 39.6478V41.371V59.5535C94.9818 60.5682 95.0918 61.4725 95.8329 62.0462Z" fill="#1E2328" stroke="#1E2328"/>
<path d="M136.142 59.855L136.142 59.855L136.144 59.8591C136.508 60.9041 136.926 61.6655 137.624 62.136C137.922 62.3372 138.255 62.4738 138.627 62.5641H132.103C132.532 62.47 132.904 62.3128 133.156 62.0242C133.457 61.6799 133.497 61.257 133.452 60.8615C133.407 60.4755 133.271 60.0263 133.114 59.542C133.113 59.5412 133.113 59.5405 133.113 59.5397L131.48 54.3493L131.37 53.9993H131.003H121.839H121.477L121.364 54.3434L119.659 59.5384L119.658 59.5397C119.5 60.0252 119.364 60.4743 119.319 60.8599C119.272 61.2528 119.309 61.6742 119.602 62.0192C119.85 62.3109 120.219 62.4695 120.641 62.5641H116.776C117.119 62.4786 117.429 62.3503 117.707 62.1612C118.393 61.6939 118.791 60.9237 119.119 59.8455L126.96 36.1147H128.088L136.142 59.855ZM121.86 53.0129L121.651 53.6655H122.336H130.577H131.262L131.053 53.0129L127.004 40.3764L126.893 40.029H126.528H126.386H126.021L125.91 40.3764L121.86 53.0129Z" fill="#1E2328" stroke="#1E2328"/>
<path d="M139.731 40.0799C139.616 40.6061 139.529 41.2213 139.462 41.9377L139.814 37.1258L139.814 37.1253L139.851 36.6064H157.676L157.714 37.1253L157.714 37.1258L157.99 40.9012C157.944 40.6048 157.893 40.3305 157.836 40.0771C157.665 39.3204 157.435 38.7159 157.099 38.2527C156.389 37.2721 155.329 37.0807 154.021 37.0807H151.819C151.365 37.0807 150.943 37.217 150.633 37.5234C150.322 37.8306 150.182 38.251 150.182 38.704V59.5542C150.182 60.5562 150.27 61.4616 150.979 62.0392C151.301 62.3016 151.713 62.4635 152.204 62.5644H145.324C145.815 62.4635 146.227 62.3016 146.549 62.0392C147.258 61.4616 147.346 60.5562 147.346 59.5542V38.704C147.346 38.2275 147.212 37.796 146.887 37.489C146.567 37.187 146.14 37.0807 145.709 37.0807H143.507C142.231 37.0807 141.174 37.2734 140.464 38.2527C140.128 38.7163 139.898 39.3213 139.731 40.0799Z" fill="#1E2328" stroke="#1E2328"/>
<path d="M165.319 54.0076V39.5458C165.319 38.5438 165.231 37.6384 164.522 37.0609C164.2 36.7984 163.789 36.6365 163.297 36.5356H170.177C169.686 36.6365 169.275 36.7984 168.952 37.0609C168.244 37.6384 168.156 38.5438 168.156 39.5458V54.0076C168.156 56.7947 168.695 58.8485 169.835 60.2083C170.992 61.5877 172.685 62.1597 174.765 62.1597C176.763 62.1597 178.446 61.5026 179.618 60.0824C180.776 58.678 181.375 56.5983 181.375 53.8672V39.5458C181.375 38.5316 181.265 37.6322 180.548 37.0582C180.223 36.7981 179.812 36.6366 179.323 36.5356H183.96C183.468 36.6365 183.057 36.7984 182.735 37.0609C182.026 37.6384 181.938 38.5438 181.938 39.5458V53.9374C181.938 56.3823 181.482 58.6628 180.275 60.3212C179.089 61.9505 177.122 63.0552 173.913 63.0552C170.682 63.0552 168.565 62.0581 167.244 60.4867C165.91 58.8996 165.319 56.6463 165.319 54.0076Z" fill="#1E2328" stroke="#1E2328"/>
<path d="M190.436 36.5356H198.849C201.844 36.5356 203.913 37.1739 205.227 38.2557C206.523 39.3232 207.158 40.8849 207.158 42.9155C207.158 45.0288 206.413 46.5205 205.232 47.5597C204.035 48.6134 202.346 49.238 200.413 49.5109L200.334 50.4833C200.955 50.6771 201.445 50.9231 201.923 51.4031C202.414 51.8962 202.917 52.6611 203.511 53.9376L203.516 53.9496L203.523 53.9614L206.505 59.5749C206.505 59.5754 206.506 59.576 206.506 59.5765C207.029 60.5757 207.482 61.3954 208.165 61.9373C208.543 62.2375 208.973 62.4399 209.487 62.5638H209.363C207.062 62.5638 205.927 62.4467 205.149 61.9916C204.388 61.5464 203.894 60.7321 203.066 58.9881L203.066 58.988L203.061 58.9783L198.585 50.0625L198.447 49.7868H198.139H197.641C196.994 49.7868 196.387 49.7861 195.856 49.7204L195.294 49.6511V50.2166V59.5536C195.294 60.5679 195.404 61.4672 196.121 62.0412C196.446 62.3013 196.858 62.4628 197.347 62.5638H190.436C190.927 62.4629 191.339 62.301 191.661 62.0386C192.37 61.4611 192.458 60.5556 192.458 59.5536V39.5458C192.458 38.5438 192.37 37.6384 191.661 37.0609C191.339 36.7984 190.927 36.6365 190.436 36.5356ZM195.294 48.8828V49.3309L195.74 49.3798C196.406 49.453 197.069 49.453 197.7 49.453H197.712C199.526 49.453 201.171 49.0148 202.368 47.959C203.576 46.8934 204.251 45.2666 204.251 43.0559C204.251 41.1473 203.749 39.605 202.748 38.537C201.743 37.4643 200.3 36.9397 198.565 36.9397C197.826 36.9397 197.05 37.0119 196.263 37.3207C195.616 37.5404 195.294 38.0984 195.294 38.7034V48.8828Z" fill="#1E2328" stroke="#1E2328"/>
<path d="M230.057 60.707C230.653 59.9905 231.138 58.9289 231.617 57.4154L230.408 61.947L230.23 62.5638H214.875C215.366 62.4629 215.778 62.301 216.1 62.0386C216.809 61.4611 216.897 60.5556 216.897 59.5536V39.5458C216.897 38.5438 216.809 37.6384 216.1 37.0609C215.778 36.7984 215.366 36.6365 214.875 36.5356H230.239L230.322 37.1494L230.711 40.6943C230.668 40.4716 230.621 40.262 230.572 40.0652C230.384 39.3107 230.144 38.7109 229.812 38.2521C229.105 37.2769 228.089 37.0801 226.84 37.0801H221.938C221.322 37.0801 220.768 37.2434 220.37 37.6369C219.971 38.0313 219.804 38.5814 219.804 39.1948V48.4616V48.9616H220.304H224.567C225.56 48.9616 226.452 48.8529 227.002 48.0626C227.186 47.7988 227.314 47.4807 227.406 47.1109V50.9836C227.314 50.6182 227.185 50.3035 227 50.0421C226.45 49.2635 225.559 49.155 224.567 49.155H220.304H219.804V49.655V59.6238C219.804 60.0361 219.822 60.3937 219.878 60.6937C219.935 60.9956 220.039 61.2792 220.24 61.5077C220.647 61.9693 221.287 62.0193 221.938 62.0193H226.769C227.436 62.0193 228.043 61.956 228.595 61.7556C229.157 61.5515 229.635 61.2144 230.057 60.707Z" fill="#1E2328" stroke="#1E2328"/>
</svg>
